<svg xmlns="http://www.w3.org/2000/svg" width="64" height="64" viewBox="0 0 64 64">
  <defs>
    <radialGradient id="cherry" cx="38%" cy="32%" r="70%">
      <stop offset="0%" stop-color="#ff7a93"/>
      <stop offset="45%" stop-color="#e21b3c"/>
      <stop offset="100%" stop-color="#9b0e25"/>
    </radialGradient>
    <linearGradient id="stem" x1="0" y1="0" x2="1" y2="1">
      <stop offset="0%" stop-color="#7ac74f"/>
      <stop offset="100%" stop-color="#3f7d2e"/>
    </linearGradient>
  </defs>
  <!-- stems -->
  <path d="M30 12 C 26 26, 22 34, 22 42" fill="none" stroke="url(#stem)" stroke-width="3.4" stroke-linecap="round"/>
  <path d="M30 12 C 36 24, 42 30, 44 40" fill="none" stroke="url(#stem)" stroke-width="3.4" stroke-linecap="round"/>
  <!-- leaf -->
  <path d="M30 12 C 38 4, 48 6, 50 12 C 44 16, 34 16, 30 12 Z" fill="url(#stem)"/>
  <!-- cherries -->
  <circle cx="22" cy="46" r="13" fill="url(#cherry)"/>
  <circle cx="44" cy="44" r="13" fill="url(#cherry)"/>
  <!-- glossy highlights (cute + sexy shine) -->
  <ellipse cx="17.5" cy="41" rx="4.2" ry="2.8" fill="#ffffff" opacity="0.8" transform="rotate(-28 17.5 41)"/>
  <ellipse cx="39.5" cy="39" rx="4.2" ry="2.8" fill="#ffffff" opacity="0.8" transform="rotate(-28 39.5 39)"/>
  <circle cx="26" cy="50" r="1.5" fill="#ffffff" opacity="0.5"/>
  <circle cx="48" cy="48" r="1.5" fill="#ffffff" opacity="0.5"/>
</svg>
