<svg xmlns="http://www.w3.org/2000/svg" xmlns:xlink="http://www.w3.org/1999/xlink" viewBox="0 0 123.377 19.376" overflow="visible"><path d="M 108.722 1.288 L 108.722 4.023 L 114.073 4.023 L 114.073 18.088 L 117.025 18.088 L 117.025 4.023 L 122.377 4.023 L 122.377 1.288 Z M 123.377 5.023 L 118.025 5.023 L 118.025 19.088 L 113.073 19.088 L 113.073 5.023 L 107.722 5.023 L 107.722 0.288 L 123.377 0.288 Z M 102.265 1.288 L 102.265 12.904 L 93.265 1.288 L 90.528 1.288 L 90.528 18.088 L 93.433 18.088 L 93.433 6.136 L 102.696 18.088 L 105.168 18.088 L 105.168 1.288 Z M 106.168 19.088 L 102.206 19.088 L 101.906 18.7 L 94.433 9.059 L 94.433 19.088 L 89.528 19.088 L 89.528 0.288 L 93.755 0.288 L 101.265 9.98 L 101.265 0.288 L 106.168 0.288 Z M 82.599 1.288 L 82.599 18.088 L 85.551 18.088 L 85.551 1.288 Z M 86.551 19.088 L 81.599 19.088 L 81.599 0.288 L 86.551 0.288 Z M 78.385 9.688 L 78.385 9.64 C 78.385 5.06 75.005 1.246 70.103 1.012 L 69.624 1 C 64.464 1 60.817 4.984 60.816 9.688 L 60.816 9.736 L 60.827 10.176 C 61.037 14.559 64.353 18.138 69.097 18.364 L 69.577 18.376 C 74.575 18.376 78.155 14.637 78.374 10.127 L 78.384 9.687 Z M 63.912 9.688 L 63.912 9.64 C 63.912 6.376 66.24 3.736 69.576 3.736 L 69.889 3.744 C 73.081 3.905 75.288 6.526 75.289 9.688 L 75.289 9.736 L 75.281 10.04 C 75.141 13.162 72.856 15.64 69.624 15.64 L 69.624 14.64 C 72.346 14.64 74.288 12.512 74.288 9.736 L 74.288 9.687 C 74.288 6.91 72.32 4.737 69.576 4.737 C 66.855 4.737 64.912 6.864 64.912 9.64 L 64.912 9.687 C 64.912 12.465 66.88 14.639 69.624 14.64 L 69.624 15.64 C 66.264 15.64 63.912 12.951 63.912 9.687 Z M 79.385 9.688 L 79.373 10.177 C 79.128 15.202 75.126 19.376 69.576 19.376 C 63.85 19.376 59.816 15.002 59.816 9.736 L 59.816 9.687 C 59.816 4.447 63.896 0 69.624 0 C 75.351 0 79.384 4.374 79.384 9.64 L 79.384 9.687 Z M 44.049 0.288 L 51.673 0.288 L 51.673 1.288 L 45.049 1.288 L 45.049 18.088 L 48 18.088 L 48 12.688 L 51.336 12.688 C 54.94 12.688 57.868 10.818 58.048 7.298 L 58.057 6.952 L 58.057 6.904 C 58.057 3.626 55.759 1.428 52.037 1.294 L 51.672 1.288 L 51.672 0.288 C 53.824 0.288 55.677 0.899 57.005 2.079 C 58.345 3.269 59.057 4.957 59.057 6.904 L 59.057 6.952 L 59.046 7.354 C 58.944 9.334 58.082 10.919 56.714 12.007 C 55.28 13.147 53.362 13.687 51.336 13.687 L 49 13.687 L 49 19.087 L 44.048 19.087 L 44.048 0.289 Z M 54.058 6.976 C 54.058 6.24 53.809 5.796 53.451 5.512 C 53.108 5.238 52.562 5.033 51.782 4.986 L 51.434 4.976 L 49 4.976 L 49 9.023 L 51.433 9.023 L 51.433 10.023 L 48 10.023 L 48 3.976 L 51.433 3.976 C 53.64 3.976 55.056 4.984 55.057 6.976 L 55.057 7.023 L 55.052 7.187 C 54.968 8.853 53.595 10.023 51.432 10.023 L 51.432 9.023 C 52.367 9.023 53.026 8.763 53.434 8.418 C 53.829 8.084 54.057 7.616 54.057 7.023 L 54.057 6.976 Z M 37.345 1.288 L 37.345 12.904 L 28.345 1.288 L 25.608 1.288 L 25.608 18.088 L 28.513 18.088 L 28.513 6.136 L 37.776 18.088 L 40.248 18.088 L 40.248 1.288 Z M 41.248 19.088 L 37.286 19.088 L 36.986 18.7 L 29.513 9.059 L 29.513 19.088 L 24.608 19.088 L 24.608 0.288 L 28.835 0.288 L 36.345 9.98 L 36.345 0.288 L 41.248 0.288 Z M 17.679 1.288 L 17.679 18.088 L 20.631 18.088 L 20.631 1.288 Z M 21.631 19.088 L 16.679 19.088 L 16.679 0.288 L 21.631 0.288 Z M 0 0.288 L 7.624 0.288 L 7.624 1.288 L 1 1.288 L 1 18.088 L 3.952 18.088 L 3.952 12.688 L 7.288 12.688 L 7.635 12.682 C 11.078 12.565 13.825 10.705 13.999 7.298 L 14.008 6.952 L 14.008 6.904 C 14.008 3.626 11.71 1.428 7.988 1.294 L 7.624 1.288 L 7.624 0.288 C 9.776 0.288 11.629 0.9 12.956 2.079 C 14.296 3.269 15.008 4.957 15.008 6.904 L 15.008 6.952 L 14.998 7.354 C 14.896 9.334 14.034 10.919 12.665 12.007 C 11.232 13.147 9.315 13.687 7.288 13.687 L 4.952 13.687 L 4.952 19.087 L 0 19.087 L 0 0.289 Z M 10.008 6.976 C 10.008 6.239 9.76 5.796 9.401 5.512 C 9.009 5.199 8.353 4.976 7.384 4.976 L 4.952 4.976 L 4.952 9.023 L 7.384 9.023 L 7.384 10.023 L 3.952 10.023 L 3.952 3.976 L 7.384 3.976 C 9.592 3.976 11.008 4.984 11.008 6.976 L 11.008 7.023 C 11.008 8.775 9.616 10.023 7.384 10.023 L 7.384 9.023 C 8.319 9.023 8.979 8.763 9.387 8.418 C 9.782 8.084 10.007 7.616 10.007 7.023 L 10.007 6.976 Z" fill="#000000"></path></svg>